<svg xmlns="http://www.w3.org/2000/svg" width="203.244" height="72.948" viewBox="0 0 203.244 72.948">
  <g id="Group_290" data-name="Group 290" transform="translate(-10.561 -24.05)">
    <g id="Group_284" data-name="Group 284" transform="translate(11.726 24.05)">
      <g id="Group_282" data-name="Group 282" transform="translate(30.903)">
        <path id="Path_340" data-name="Path 340" d="M52.561,33.071h.424a.711.711,0,0,0,.784-.745V25.461a.711.711,0,0,0-.784-.745h-.3v-.462c.8.039,1.428.077,2.045.077.694,0,1.336-.077,2.262-.077,1.671,0,2.918.45,2.918,2.095a2.323,2.323,0,0,1-1.967,2.224V28.6c1.453.116,2.713.977,2.713,2.443s-.914,2.494-3.086,2.494c-.861,0-1.786-.078-2.544-.078-.823,0-1.645.039-2.468.078Zm4.074-8.279H56.1c-.784,0-.861.1-.861.682v2.853c.424.026.874.04,1.336.04,1.2,0,1.954-.322,1.954-1.762A1.653,1.653,0,0,0,56.635,24.792Zm-.205,4.114c-.386,0-.809,0-1.2.039v3.51c0,.539.668.539,1.774.539,1.208,0,2.185-.475,2.185-1.889C59.194,29.407,57.741,28.906,56.43,28.906Z" transform="translate(-52.561 -24.099)" fill="#fff"/>
        <path id="Path_341" data-name="Path 341" d="M73.879,33.071H74.3a.711.711,0,0,0,.784-.745V25.461a.711.711,0,0,0-.784-.745h-.3v-.462c.463.039.977.077,1.813.077s1.349-.038,1.813-.077v.462h-.3a.711.711,0,0,0-.784.745v6.711c0,.54.167.745.579.745h.951c1.492,0,2.751-.231,2.932-2.224h.617l-.462,2.842c-1.222-.04-2.443-.078-3.78-.078-1.26,0-2.4.039-3.51.078Z" transform="translate(-57.663 -24.099)" fill="#fff"/>
        <path id="Path_342" data-name="Path 342" d="M99.677,29.886H96.463l-.874,2.16a2.093,2.093,0,0,0-.193.642c0,.335.437.335.875.335h.3v.463c-.475-.04-.951-.078-1.492-.078-.513,0-.964.039-1.465.078v-.463h.206c.539,0,.694-.283,1.066-1.144L98.2,24.05h.694l3.291,8.022c.27.68.437.951,1.08.951v.463c-.54-.04-1.131-.078-1.813-.078-.746,0-1.388.039-1.9.078v-.463h.412c.4,0,.72,0,.72-.3a2.959,2.959,0,0,0-.231-.837ZM98.1,25.837l-1.414,3.51h2.777Z" transform="translate(-62.385 -24.05)" fill="#fff"/>
        <path id="Path_343" data-name="Path 343" d="M117.46,25.461a.711.711,0,0,0-.784-.745h-.3v-.462c.463.039.977.077,1.813.077s1.349-.038,1.813-.077v.462h-.3a.711.711,0,0,0-.784.745v6.865a.711.711,0,0,0,.784.745h.3v.463c-.463-.04-.977-.078-1.813-.078s-1.35.039-1.813.078v-.463h.3a.711.711,0,0,0,.784-.745Zm4.383,7.61h.567c.154,0,.321,0,.321-.154,0-.064-.077-.18-.27-.424l-2.468-3.136c-.437-.553-.527-.643-.848-.643v-.154a.714.714,0,0,0,.656-.3l2.622-2.982c.154-.167.167-.245.167-.322,0-.244-.386-.244-.887-.244v-.462c.476.039.964.077,1.7.077.591,0,1.169-.038,1.658-.077v.462c-1.042,0-1.311.244-2.109,1.119l-2.172,2.378L124.12,32.3a1.663,1.663,0,0,0,1.529.771v.463c-.642-.04-1.273-.078-1.9-.078s-1.273.039-1.9.078Z" transform="translate(-67.835 -24.099)" fill="#fff"/>
        <path id="Path_344" data-name="Path 344" d="M138.155,33.071h.424a.711.711,0,0,0,.784-.745V25.461a.711.711,0,0,0-.784-.745h-.3v-.462c1.131.039,2.275.077,3.432.077,1.132,0,2.275-.038,3.433-.077l.089,2.185h-.577c-.039-1.106-.553-1.568-1.788-1.568h-1.619c-.3,0-.424.1-.424.412v3.085h1.466c1.144,0,1.478-.091,1.478-1.247h.463c-.039.539-.078,1.066-.078,1.555s.039,1.015.078,1.556h-.463c0-1.157-.334-1.247-1.478-1.247h-1.466v3.523c0,.309.129.412.424.412h2.031c1.44,0,1.928-.63,2.121-1.954h.617a24.969,24.969,0,0,0-.437,2.572c-1.221-.04-2.571-.078-3.92-.078-1.26,0-2.4.039-3.51.078Z" transform="translate(-73.046 -24.099)" fill="#fff"/>
        <path id="Path_345" data-name="Path 345" d="M161.563,32.326a.711.711,0,0,0,.784.745h.5v.463c-.514-.04-1.183-.078-2.018-.078s-1.349.039-1.813.078v-.463h.3a.711.711,0,0,0,.784-.745V25.461a.711.711,0,0,0-.784-.745h-.3v-.462c1.132.039,2.276.077,3.433.077,1.131,0,2.275-.038,3.432-.077l.091,2.365h-.579c-.039-1.311-.656-1.748-2.018-1.748H162.09c-.527,0-.527.334-.527.758V28.6h1.7c1.145,0,1.479-.091,1.479-1.247h.462c-.038.539-.077,1.066-.077,1.555s.039,1.016.077,1.556h-.462c0-1.157-.334-1.247-1.479-1.247h-1.7Z" transform="translate(-78.039 -24.099)" fill="#fff"/>
        <path id="Path_346" data-name="Path 346" d="M183.26,24.05c3.47,0,4.782,2.314,4.782,4.8s-1.311,4.794-4.782,4.794-4.783-2.314-4.783-4.794S179.788,24.05,183.26,24.05Zm0,.539c-1.955,0-3.162,1.619-3.162,4.256s1.207,4.254,3.162,4.254,3.162-1.619,3.162-4.254S185.213,24.589,183.26,24.589Z" transform="translate(-82.697 -24.05)" fill="#fff"/>
        <path id="Path_347" data-name="Path 347" d="M204.521,32.326a.711.711,0,0,0,.784.745h.3v.463c-.463-.04-.977-.078-1.813-.078s-1.349.039-1.813.078v-.463h.3a.711.711,0,0,0,.784-.745V25.461a.711.711,0,0,0-.784-.745h-.3v-.462c.464.039.977.077,1.813.077.771,0,1.477-.077,2.147-.077,1.607,0,3.367.437,3.367,2.378a2.5,2.5,0,0,1-2.43,2.443V29.1a3.149,3.149,0,0,1,1.839,2.018c.6,1.324.926,1.877,1.466,1.877h.244v.462H209.11c-.8,0-1.131-.282-1.9-2.211-.642-1.607-.925-1.89-1.773-1.89h-.913Zm0-3.51h.8c1.658,0,2.6-.411,2.6-2.006,0-1.7-.925-2.018-2.249-2.018h-.283c-.784,0-.861.1-.861.682Z" transform="translate(-88.321 -24.099)" fill="#fff"/>
        <path id="Path_348" data-name="Path 348" d="M223.9,25.319c0-.539-.36-.6-.862-.6h-.167v-.462c.63.039,1.349.077,2.147.077.707,0,1.67-.077,2.738-.077,2.648,0,4.486,1.465,4.486,4.524,0,3.188-2.018,4.757-5.077,4.757-.707,0-1.633-.078-2.482-.078-.694,0-1.349.039-2.03.078v-.463h.218c.707,0,1.028-.244,1.028-.771Zm1.465,6.993c0,.45.039.6,1.183.6,2.392,0,4.076-.887,4.076-3.908,0-3.136-1.556-4.139-3.973-4.139-1.221,0-1.286.064-1.286.565Z" transform="translate(-93.269 -24.099)" fill="#fff"/>
      </g>
      <g id="Group_283" data-name="Group 283" transform="translate(0 6.79)">
        <path id="Path_349" data-name="Path 349" d="M44.263,66.949v1.542h-11.1V66.949H34.4a1.454,1.454,0,0,0,1.542-1.388,3.105,3.105,0,0,0-.205-1.13c-.669-1.9-2.211-6.373-2.621-7.452H19.079C17.9,59.445,16.3,63.2,16.3,65.048s.515,3.033,1.286,3.084c0,.257-.873,1.234-2.981,1.234-2.415,0-2.673-2.416-2.673-3.342,0-2.158,1.491-5.036,2.827-7.658,4.83-9.559,9.148-18.452,9.148-21.277,0-2.261-1.489-2.519-1.9-2.57,0-.514.926-1.542,2.827-1.542,3.237,0,4.574,2.724,5.6,5.6.719,2.055,9.2,25.389,9.2,25.389a4.21,4.21,0,0,0,3.34,2.981Zm-12.129-12.9c-1.8-4.779-3.495-9.816-5.243-14.6-.873,2.056-2.467,6.63-6.476,14.6Z" transform="translate(-11.935 -32.977)" fill="#fff"/>
        <path id="Path_350" data-name="Path 350" d="M71.341,50.811c-.258-2.775-2.313-3.6-5.4-3.6-.822,0-1.542.205-1.7,1.079V67.309c0,1.49.719,2.621,2.158,2.621h1.85v1.439H56.693V69.93h1.7c1.491,0,2.158-1.336,2.158-2.621V48.447a1.127,1.127,0,0,0-1.182-1.284c-5.91,0-6.321,3.237-6.476,3.237-.977,0-1.7-1.439-1.7-2.673a2.467,2.467,0,0,1,1.285-2.261,6.887,6.887,0,0,1,2.929-.411c2.518,0,3.289.1,7.041.205L69.8,45c3.7,0,3.7,1.028,3.7,1.9C73.5,47.933,73.294,50.811,71.341,50.811Z" transform="translate(-21.331 -35.855)" fill="#fff"/>
        <path id="Path_351" data-name="Path 351" d="M130.894,48.647v19.17c0,.411.308,2.158,1.953,2.158h1.439v1.491H124.007V69.975h.977a2.169,2.169,0,0,0,2.21-2.158V59.7c0-.308-.309-.565-.771-.668H113.985c-.514,0-.617.668-.617.668v8.121c0,.411.154,2.158,1.747,2.158H116.5v1.491h-9.971V69.975h1.028a2.079,2.079,0,0,0,2.159-2.158V48.8a1.9,1.9,0,0,0-2.005-1.851h-1.182V45.408H116.5V46.95H114.91c-1.182,0-1.542,1.336-1.542,1.7v6.989s.154.618.72.618h12.335c.616,0,.771-.412.771-.566V48.8a1.837,1.837,0,0,0-1.8-1.851h-1.387V45.408h10.279V46.95h-1.8C131.3,46.95,130.894,48.286,130.894,48.647Z" transform="translate(-34.575 -35.952)" fill="#fff"/>
        <path id="Path_352" data-name="Path 352" d="M148.628,58.32c0-7.863,5.037-13.722,13.106-13.722,8.686,0,13,6.167,13,13.722,0,7.3-4.985,13.62-13.157,13.62C153.974,71.94,148.628,65.824,148.628,58.32Zm13.055,11.1c5.6,0,9.2-4.934,9.2-11.1,0-6.218-3.238-11.307-9.2-11.307-6.167,0-9.045,5.7-9.148,11.307C152.535,64.179,155.721,69.371,161.683,69.422Z" transform="translate(-44.65 -35.758)" fill="#fff"/>
        <path id="Path_353" data-name="Path 353" d="M227.759,71.466H218.2V69.975h.617c1.183,0,1.388-1.079,1.388-1.8l-1.8-17.218c0-.1-.051-.36-.051-.411-.309,0-7.041,16.652-8.275,19.119a3.293,3.293,0,0,1-2.827,1.953c-.823,0-1.747-.308-1.747-.616a2.591,2.591,0,0,0,.36-1.439c0-.566-1.131-2.929-2.981-7.042l-5.5-12.129c-.411,1.336-1.439,17.012-1.439,17.731,0,.514.154,1.85,1.182,1.85h.668v1.491h-9.1V69.975h1.131a2.392,2.392,0,0,0,2.57-2.261l1.9-19.068c-.052-.874-.257-1.7-2.107-1.7h-1.387V45.408h4.882c2.673,0,3.649.823,4.831,3.393l7.813,17.475c2.312-5.345,4.471-10.639,6.784-16.653a5.681,5.681,0,0,1,5.448-4.215H225.5V46.95h-1.336c-1.182,0-2.159.515-2.159,1.748,0,.257,0,.412,2,18.862a2.381,2.381,0,0,0,2.416,2.416h1.336Z" transform="translate(-54.24 -35.952)" fill="#fff"/>
        <path id="Path_354" data-name="Path 354" d="M267.636,48.912A2.86,2.86,0,0,1,264.5,52.1c0-3.495-.617-5.036-5.6-5.036-2.467,0-5.961.1-5.961,1.49v8.326h6.116c2.467,0,3.34.515,3.34,2.005,0,1.233-1.336,1.8-2.106,1.8,0-1.336-1.747-1.747-2.776-1.747h-4.574v8.891c0,1.439,4.163,1.49,6.886,1.49,5.037,0,6.219-3.7,6.219-4.318a2.581,2.581,0,0,1,2.827,2.312c0,3.393-4.419,4.009-8.583,4.009H246V69.779h1.337a1.927,1.927,0,0,0,1.953-2V48.912a1.972,1.972,0,0,0-1.953-2.108H246.1V45.263h4.728c3.547,0,6.99-.462,9.406-.462C264.86,44.8,267.636,45.109,267.636,48.912Z" transform="translate(-67.954 -35.807)" fill="#fff"/>
      </g>
    </g>
    <g id="Group_289" data-name="Group 289" transform="translate(11.061 73.171)">
      <g id="Group_285" data-name="Group 285" transform="translate(89.982)">
        <path id="Path_355" data-name="Path 355" d="M139.177,93.508l.234-.953a29.01,29.01,0,0,0,4.788-.778q-.68,2.006-.99,3.232l-1.047,4.343a7.064,7.064,0,0,0,5.178-1.724,5.574,5.574,0,0,0,1.739-4.1,3.259,3.259,0,0,0-1.255-2.667,5.872,5.872,0,0,0-3.744-1.012,14.239,14.239,0,0,0-6.711,1.675A13.093,13.093,0,0,0,132.4,95.9a9.743,9.743,0,0,0-1.78,5.4,4.444,4.444,0,0,0,.2,1.373,3.977,3.977,0,0,0,.593,1.159,4.746,4.746,0,0,0,1.031.857,5.153,5.153,0,0,1,1.108.925,1.193,1.193,0,0,1,.214.71.971.971,0,0,1-.3.71.992.992,0,0,1-.729.3q-1.108,0-2.246-1.616a6.764,6.764,0,0,1-1.138-3.992,11.636,11.636,0,0,1,1.955-6.337,14.018,14.018,0,0,1,5.534-4.917,16.9,16.9,0,0,1,7.877-1.85,8.689,8.689,0,0,1,5.319,1.382,4.111,4.111,0,0,1,1.819,3.367,5.4,5.4,0,0,1-1.225,3.436,7.728,7.728,0,0,1-3.715,2.385,6.92,6.92,0,0,1,2.7.923,4.515,4.515,0,0,1,1.527,1.643,4.711,4.711,0,0,1,.535,2.274,7.111,7.111,0,0,1-1.235,3.976,9.337,9.337,0,0,1-3.638,3.11,10.823,10.823,0,0,1-5.009,1.234q-.759,0-3.248-.155-1.187-.058-2.49-.059a17.836,17.836,0,0,0-3.52.311l.291-1.07a4.4,4.4,0,0,0,2.908-.979,9.016,9.016,0,0,0,1.624-3.808l2.879-11.305a5.143,5.143,0,0,0,.175-1.1.69.69,0,0,0-.243-.52.868.868,0,0,0-.612-.225A1.665,1.665,0,0,0,139.177,93.508Zm2.673,7.012-.99,3.914a32.6,32.6,0,0,1-1.455,4.674,5.46,5.46,0,0,1-1.063,1.653,12.949,12.949,0,0,0,3.015.428,6.293,6.293,0,0,0,5.144-2.1,7.175,7.175,0,0,0,1.741-4.693,3.735,3.735,0,0,0-.651-2.209,3.429,3.429,0,0,0-1.709-1.3A14.362,14.362,0,0,0,141.85,100.52Z" transform="translate(-129.355 -88.626)" fill="#fff"/>
      </g>
      <g id="Group_288" data-name="Group 288" transform="translate(0 11.533)">
        <g id="Group_286" data-name="Group 286">
          <line id="Line_11" data-name="Line 11" x2="85.91" transform="translate(0 0.38)" fill="#fff4d9" stroke="#fff" stroke-width="1"/>
          <rect id="Rectangle_140" data-name="Rectangle 140" width="85.91" height="0.761" fill="#fff" stroke="#fff" stroke-width="1"/>
        </g>
        <g id="Group_287" data-name="Group 287" transform="translate(116.334)">
          <line id="Line_12" data-name="Line 12" x2="85.91" transform="translate(0 0.38)" fill="#fff4d9" stroke="#fff" stroke-width="1"/>
          <rect id="Rectangle_141" data-name="Rectangle 141" width="85.91" height="0.761" fill="#fff" stroke="#fff" stroke-width="1"/>
        </g>
      </g>
    </g>
  </g>
</svg>
