<svg xmlns="http://www.w3.org/2000/svg" width="234.334px" height="82.206px" viewBox="0 0 234.334 82.206" transform="rotate(0) scale(1, 1)"><g transform="translate(-32.51 -41.554)"><g transform="translate(32.51 41.554)"><path d="M32.51,69.905h1.214a2.035,2.035,0,0,0,2.244-2.133V48.136A2.035,2.035,0,0,0,33.724,46h-.846V44.679c2.281.11,4.083.221,5.848.221,1.986,0,3.824-.221,6.472-.221,4.78,0,8.347,1.287,8.347,5.994,0,3.42-2.316,5.369-5.626,6.362v.074c4.154.331,7.759,2.795,7.759,6.986s-2.611,7.134-8.824,7.134c-2.464,0-5.113-.221-7.282-.221-2.353,0-4.707.11-7.06.221ZM44.167,46.224H42.623c-2.244,0-2.463.294-2.463,1.949v8.164c1.213.073,2.5.11,3.824.11,3.42,0,5.59-.919,5.59-5.038C49.574,47.916,47.624,46.224,44.167,46.224Zm-.588,11.767c-1.1,0-2.316,0-3.419.11V68.14c0,1.545,1.912,1.545,5.075,1.545,3.456,0,6.251-1.361,6.251-5.406C51.486,59.425,47.33,57.991,43.579,57.991Z" transform="translate(-32.51 -44.238)" fill="#fffffff2"/><path d="M220.69,69.905H221.9a2.035,2.035,0,0,0,2.244-2.133V48.136A2.035,2.035,0,0,0,221.9,46h-.846V44.679c1.324.11,2.795.221,5.185.221s3.861-.11,5.184-.221V46h-.845a2.034,2.034,0,0,0-2.244,2.133v19.2c0,1.544.477,2.133,1.654,2.133h2.721c4.266,0,7.869-.662,8.385-6.362h1.765l-1.324,8.127c-3.494-.11-6.987-.221-10.811-.221-3.6,0-6.877.11-10.039.221Z" transform="translate(-194.138 -44.238)" fill="#fffffff2"/><path d="M401.725,58.249h-9.193l-2.5,6.178a6.033,6.033,0,0,0-.551,1.839c0,.956,1.251.956,2.5.956h.845v1.324c-1.36-.11-2.721-.221-4.265-.221-1.47,0-2.758.11-4.193.221V67.221h.588c1.544,0,1.986-.809,3.053-3.272L397.5,41.554h1.985L408.9,64.5c.772,1.949,1.251,2.721,3.09,2.721v1.324c-1.544-.11-3.236-.221-5.185-.221-2.133,0-3.972.11-5.443.221V67.221h1.177c1.141,0,2.06,0,2.06-.846a8.522,8.522,0,0,0-.661-2.39ZM397.2,46.666,393.157,56.7H401.1Z" transform="translate(-335.098 -41.554)" fill="#fffffff2"/><path d="M598.05,48.136A2.034,2.034,0,0,0,595.808,46h-.846V44.679c1.325.11,2.795.221,5.184.221s3.862-.11,5.185-.221V46h-.846a2.034,2.034,0,0,0-2.242,2.133V67.773a2.034,2.034,0,0,0,2.242,2.133h.846v1.324c-1.323-.11-2.794-.221-5.185-.221s-3.86.11-5.184.221V69.905h.846a2.034,2.034,0,0,0,2.242-2.133Zm12.541,21.769h1.617c.442,0,.92,0,.92-.441,0-.184-.222-.515-.773-1.214l-7.06-8.972c-1.25-1.581-1.507-1.839-2.426-1.839V57a2.038,2.038,0,0,0,1.875-.846l7.5-8.532c.442-.478.477-.7.477-.919,0-.7-1.1-.7-2.537-.7V44.679c1.361.11,2.759.221,4.855.221,1.691,0,3.346-.11,4.743-.221V46c-2.979,0-3.75.7-6.031,3.2l-6.214,6.8L617.1,67.7c1.361,1.655,2.281,2.206,4.376,2.206v1.324c-1.839-.11-3.64-.221-5.442-.221s-3.641.11-5.442.221Z" transform="translate(-516.199 -44.238)" fill="#fffffff2"/><path d="M790.179,69.905h1.214a2.035,2.035,0,0,0,2.244-2.133V48.136A2.035,2.035,0,0,0,791.393,46h-.846V44.679c3.235.11,6.509.221,9.818.221,3.236,0,6.509-.11,9.818-.221l.257,6.252h-1.654c-.11-3.163-1.581-4.487-5.111-4.487h-4.633c-.846,0-1.214.295-1.214,1.177v8.825h4.191c3.274,0,4.23-.257,4.23-3.567h1.323c-.11,1.544-.221,3.052-.221,4.45s.111,2.9.221,4.449h-1.323c0-3.309-.956-3.567-4.23-3.567h-4.191V68.288c0,.883.368,1.177,1.214,1.177h5.81c4.119,0,5.516-1.8,6.067-5.59h1.765a71.684,71.684,0,0,0-1.251,7.355c-3.492-.11-7.354-.221-11.215-.221-3.6,0-6.877.11-10.039.221Z" transform="translate(-684.064 -44.238)" fill="#fffffff2"/><path d="M978.6,67.773a2.034,2.034,0,0,0,2.242,2.133h1.435v1.324c-1.471-.11-3.382-.221-5.774-.221s-3.86.11-5.184.221V69.905h.846a2.034,2.034,0,0,0,2.242-2.133V48.136A2.034,2.034,0,0,0,972.168,46h-.846V44.679c3.237.11,6.509.221,9.818.221,3.236,0,6.509-.11,9.818-.221l.258,6.767h-1.655c-.111-3.751-1.875-5-5.773-5h-3.678c-1.507,0-1.507.957-1.507,2.17v8.495h4.854c3.273,0,4.229-.258,4.229-3.567h1.324c-.111,1.544-.221,3.052-.221,4.45s.11,2.9.221,4.449h-1.324c0-3.309-.957-3.567-4.229-3.567H978.6Z" transform="translate(-839.825 -44.238)" fill="#fffffff2"/><path d="M1144.517,41.554c9.928,0,13.679,6.619,13.679,13.716s-3.751,13.716-13.679,13.716-13.679-6.619-13.679-13.716S1134.588,41.554,1144.517,41.554Zm0,1.544c-5.59,0-9.046,4.633-9.046,12.172s3.456,12.172,9.046,12.172,9.047-4.634,9.047-12.172S1150.106,43.1,1144.517,43.1Z" transform="translate(-977.039 -41.554)" fill="#fffffff2"/><path d="M1339.064,67.773a2.034,2.034,0,0,0,2.242,2.133h.846v1.324c-1.323-.11-2.794-.221-5.185-.221s-3.86.11-5.184.221V69.905h.846a2.034,2.034,0,0,0,2.243-2.133V48.136A2.034,2.034,0,0,0,1332.628,46h-.846V44.679c1.325.11,2.8.221,5.184.221,2.208,0,4.23-.221,6.141-.221,4.6,0,9.635,1.251,9.635,6.8,0,4.118-3.161,6.509-6.949,6.987v.073c2.426.625,4.081,3.015,5.258,5.773,1.728,3.788,2.647,5.369,4.192,5.369h.7v1.324h-3.751c-2.28,0-3.235-.809-5.442-6.325-1.839-4.6-2.648-5.405-5.076-5.405h-2.61Zm0-10.039h2.28c4.743,0,7.428-1.177,7.428-5.736,0-4.854-2.648-5.773-6.436-5.773h-.808c-2.243,0-2.464.294-2.464,1.949Z" transform="translate(-1150.036 -44.238)" fill="#fffffff2"/><path d="M1513.625,47.731c0-1.544-1.03-1.728-2.465-1.728h-.477V44.679c1.8.11,3.862.221,6.141.221,2.022,0,4.781-.221,7.833-.221,7.575,0,12.833,4.193,12.833,12.944,0,9.12-5.773,13.606-14.525,13.606-2.022,0-4.671-.221-7.1-.221-1.985,0-3.86.11-5.81.221V69.905h.625c2.023,0,2.942-.7,2.942-2.206Zm4.192,20c0,1.287.11,1.729,3.382,1.729,6.841,0,11.657-2.537,11.657-11.179,0-8.973-4.449-11.841-11.363-11.841-3.493,0-3.677.184-3.677,1.618Z" transform="translate(-1303.157 -44.238)" fill="#fffffff2"/></g><g transform="translate(134.1 95.846)"><path d="M769.478,435.984l.273-1.117a34.007,34.007,0,0,0,5.61-.912q-.8,2.35-1.16,3.787l-1.228,5.088q4.029,0,6.066-2.019a6.529,6.529,0,0,0,2.037-4.8,3.82,3.82,0,0,0-1.47-3.124,6.88,6.88,0,0,0-4.386-1.186,16.683,16.683,0,0,0-7.862,1.962,15.338,15.338,0,0,0-5.822,5.121,11.419,11.419,0,0,0-2.085,6.33,5.2,5.2,0,0,0,.239,1.608,4.679,4.679,0,0,0,.695,1.357,5.576,5.576,0,0,0,1.208,1,6.093,6.093,0,0,1,1.3,1.084,1.4,1.4,0,0,1,.25.832,1.139,1.139,0,0,1-.353.833,1.164,1.164,0,0,1-.854.354q-1.3,0-2.632-1.893a7.921,7.921,0,0,1-1.333-4.676,13.633,13.633,0,0,1,2.29-7.425,16.422,16.422,0,0,1,6.483-5.76,19.8,19.8,0,0,1,9.229-2.167q4.1,0,6.232,1.619a4.816,4.816,0,0,1,2.131,3.945,6.328,6.328,0,0,1-1.436,4.025,9.05,9.05,0,0,1-4.352,2.794,8.1,8.1,0,0,1,3.167,1.082,5.287,5.287,0,0,1,1.789,1.925,5.52,5.52,0,0,1,.627,2.664,8.33,8.33,0,0,1-1.447,4.658,10.931,10.931,0,0,1-4.261,3.644,12.679,12.679,0,0,1-5.868,1.446q-.888,0-3.805-.182-1.39-.068-2.917-.068a20.9,20.9,0,0,0-4.124.365l.342-1.253a5.154,5.154,0,0,0,3.407-1.146q1.014-1.011,1.9-4.462l3.372-13.244a6.007,6.007,0,0,0,.2-1.285.808.808,0,0,0-.285-.608,1.016,1.016,0,0,0-.718-.264A1.939,1.939,0,0,0,769.478,435.984Zm3.132,8.214-1.16,4.586a38.225,38.225,0,0,1-1.706,5.475A6.4,6.4,0,0,1,768.5,456.2a15.2,15.2,0,0,0,3.532.5,7.374,7.374,0,0,0,6.027-2.463,8.408,8.408,0,0,0,2.04-5.5,4.381,4.381,0,0,0-.763-2.589,4.016,4.016,0,0,0-2-1.517A16.817,16.817,0,0,0,772.609,444.2Z" transform="translate(-757.97 -430.264)" fill="#fffffff2"/></g><g transform="translate(32.842 109.356)"><line x2="97.26" transform="translate(0 0.447)" fill="#fff4d9" stroke="#fffffff2" stroke-width="1"/><rect width="97.26" height="0.895" transform="translate(0)" fill="#fffffff2"/></g><g transform="translate(164.163 109.356)"><line x2="102.34" transform="translate(0 0.447)" fill="#fff4d9" stroke="#fffffff2" stroke-width="1"/><rect width="102.34" height="0.895" transform="translate(0)" fill="#fffffff2"/></g><g transform="translate(33.927 74.904)"><path d="M46.148,293.413a6.131,6.131,0,0,1-3.065-.727,9.069,9.069,0,0,1-.53-2.75c.1-.137.393-.177.471-.059A3.574,3.574,0,0,0,46.4,292.8a2.231,2.231,0,0,0,2.456-2.259,2.952,2.952,0,0,0-1.611-2.75l-1.866-1.218A4.191,4.191,0,0,1,43.26,283.2c0-1.866,1.454-3.379,4.008-3.379a7.591,7.591,0,0,1,1.827.255,2.645,2.645,0,0,0,.688.118,8.592,8.592,0,0,1,.354,2.4c-.079.118-.393.177-.491.059a2.574,2.574,0,0,0-2.672-2.22,2.058,2.058,0,0,0-2.338,2.18,3.09,3.09,0,0,0,1.67,2.417l1.572.982a4.425,4.425,0,0,1,2.456,3.772C50.332,291.94,48.7,293.413,46.148,293.413Z" transform="translate(-42.553 -279.819)" fill="#fffffff2"/><path d="M194.488,284.635c0-2.043-.039-2.338-1.2-2.475l-.314-.039c-.118-.079-.079-.432.039-.491.845.039,1.513.059,2.318.059h3.693a26.4,26.4,0,0,0,2.652-.059,22.09,22.09,0,0,1,.314,2.613.387.387,0,0,1-.491.04c-.295-.923-.471-1.611-1.493-1.867a9.38,9.38,0,0,0-1.906-.118h-1.414c-.589,0-.589.039-.589.786v3.929c0,.55.059.55.648.55h1.139a7.3,7.3,0,0,0,1.67-.118c.236-.079.373-.2.472-.688l.157-.805a.388.388,0,0,1,.511.019c0,.472-.079,1.238-.079,1.984,0,.707.079,1.454.079,1.886a.388.388,0,0,1-.511.02l-.177-.766a.84.84,0,0,0-.609-.746,6.566,6.566,0,0,0-1.513-.1h-1.139c-.589,0-.648.02-.648.53v2.77c0,1.041.059,1.709.373,2.043.236.236.648.452,2.377.452a5.751,5.751,0,0,0,2.515-.295,4.931,4.931,0,0,0,1.395-1.906.362.362,0,0,1,.491.138,17.122,17.122,0,0,1-.884,2.731c-1.768-.039-3.516-.059-5.265-.059h-1.768c-.845,0-1.513.02-2.672.059a.381.381,0,0,1-.039-.491l.648-.059c1.12-.1,1.218-.393,1.218-2.456Z" transform="translate(-171.386 -281.374)" fill="#fffffff2"/><path d="M368.866,291.313c0,.589,0,2.927.059,3.438a.354.354,0,0,1-.373.216c-.236-.334-.806-1.021-2.515-2.966l-4.558-5.186c-.531-.609-1.866-2.22-2.279-2.652h-.039a4.992,4.992,0,0,0-.1,1.277v4.283a15.375,15.375,0,0,0,.354,4.067c.118.216.511.334,1,.373l.609.059a.36.36,0,0,1-.039.491c-.884-.039-1.572-.059-2.3-.059-.825,0-1.355.02-2.043.059a.364.364,0,0,1-.039-.491l.53-.059c.452-.059.766-.177.864-.393a18.963,18.963,0,0,0,.255-4.047v-5.677a1.8,1.8,0,0,0-.432-1.414,2.131,2.131,0,0,0-1.218-.472l-.334-.039a.344.344,0,0,1,.039-.491c.825.059,1.866.059,2.22.059a6.349,6.349,0,0,0,.9-.059,27.031,27.031,0,0,0,3.359,4.322l1.906,2.141c1.356,1.512,2.318,2.613,3.241,3.556h.039a1.982,1.982,0,0,0,.079-.825v-4.2c0-.923-.02-3.477-.393-4.067-.118-.177-.432-.295-1.218-.393l-.334-.039c-.138-.118-.118-.432.039-.491.9.039,1.572.059,2.318.059.845,0,1.356-.02,2.023-.059a.345.345,0,0,1,.039.491l-.275.039c-.629.1-1.021.255-1.1.413a15.846,15.846,0,0,0-.295,4.047Z" transform="translate(-312.256 -281.373)" fill="#fffffff2"/><path d="M552.956,284.673c0-2.082-.039-2.416-1.2-2.515l-.491-.039c-.118-.079-.078-.432.039-.491.982.039,1.65.059,2.475.059.786,0,1.454-.02,2.436-.059.118.059.157.412.039.491l-.491.039c-1.159.1-1.2.432-1.2,2.515v6.994c0,2.083.039,2.357,1.2,2.5l.491.059c.118.079.079.432-.039.491-.982-.039-1.65-.059-2.436-.059-.825,0-1.493.02-2.475.059a.382.382,0,0,1-.039-.491l.491-.059c1.159-.138,1.2-.412,1.2-2.5Z" transform="translate(-479.924 -281.373)" fill="#fffffff2"/><path d="M682.85,286.754a6.79,6.79,0,0,1,6.993-6.935,6.466,6.466,0,0,1,6.817,6.738,6.707,6.707,0,0,1-6.817,6.856A6.615,6.615,0,0,1,682.85,286.754Zm11.846.413c0-3.242-1.434-6.738-5.186-6.738-2.043,0-4.7,1.395-4.7,5.7,0,2.908,1.415,6.679,5.285,6.679C692.456,292.8,694.7,291.036,694.7,287.166Z" transform="translate(-593.157 -279.819)" fill="#fffffff2"/><path d="M877.888,284.654c0-1.866-.059-2.2-.864-2.3l-.629-.079a.328.328,0,0,1,.02-.491c1.1-.1,2.456-.157,4.381-.157a6.956,6.956,0,0,1,3.28.589,2.927,2.927,0,0,1,1.631,2.75,3.634,3.634,0,0,1-2.456,3.281c-.1.118,0,.314.1.472,1.571,2.534,2.613,4.106,3.949,5.226a2.351,2.351,0,0,0,1.356.55.164.164,0,0,1,.02.275,3.059,3.059,0,0,1-.864.1c-1.67,0-2.672-.491-4.066-2.475-.511-.727-1.316-2.082-1.925-2.966a1.4,1.4,0,0,0-1.395-.629c-.884,0-.923.02-.923.432v2.475c0,2.063.039,2.3,1.179,2.456l.413.059a.384.384,0,0,1-.039.491c-.884-.039-1.552-.059-2.338-.059-.825,0-1.532.02-2.456.059a.379.379,0,0,1-.039-.491l.491-.059c1.139-.138,1.179-.393,1.179-2.456Zm1.611,2.809a1.552,1.552,0,0,0,.059.648c.059.059.354.1,1.356.1a3.292,3.292,0,0,0,2.023-.511,2.817,2.817,0,0,0,.982-2.436,2.894,2.894,0,0,0-3.143-3.025c-1.218,0-1.277.079-1.277.629Z" transform="translate(-759.371 -281.374)" fill="#fffffff2"/><path d="M1168.966,284.634c0-2.063-.039-2.377-1.277-2.475l-.491-.039c-.118-.079-.078-.432.039-.491,1.1.039,1.768.059,2.554.059.766,0,1.434-.02,2.417-.059.118.059.157.412.04.491l-.472.039c-1.159.1-1.2.413-1.2,2.475v6.837c0,1.238.059,1.748.412,2.122.216.216.59.452,2.142.452,1.67,0,2.082-.079,2.4-.255a4.194,4.194,0,0,0,1.3-1.945c.118-.1.491-.02.491.118a15.748,15.748,0,0,1-.825,2.75c-1-.039-2.868-.059-4.891-.059h-1.808c-.825,0-1.454.02-2.554.059a.382.382,0,0,1-.039-.491l.589-.059c1.139-.118,1.179-.393,1.179-2.456Z" transform="translate(-1009.577 -281.373)" fill="#fffffff2"/><path d="M1329.971,284.673c0-2.082-.039-2.416-1.2-2.515l-.491-.039c-.118-.079-.078-.432.04-.491.982.039,1.65.059,2.475.059.786,0,1.454-.02,2.437-.059.118.059.157.412.039.491l-.491.039c-1.159.1-1.2.432-1.2,2.515v6.994c0,2.083.039,2.357,1.2,2.5l.491.059c.118.079.079.432-.039.491-.983-.039-1.65-.059-2.437-.059-.825,0-1.493.02-2.475.059a.381.381,0,0,1-.04-.491l.491-.059c1.159-.138,1.2-.412,1.2-2.5Z" transform="translate(-1148.064 -281.373)" fill="#fffffff2"/><path d="M1462.295,287.228c0,.531.059.531.648.531h1.336a7.409,7.409,0,0,0,1.67-.118c.216-.079.374-.177.491-.688l.177-.786a.413.413,0,0,1,.511,0c0,.472-.079,1.257-.079,1.984,0,.707.079,1.454.079,1.906-.079.118-.373.118-.511,0l-.2-.766a.944.944,0,0,0-.628-.746,6.681,6.681,0,0,0-1.513-.1h-1.336c-.589,0-.648.02-.648.53v2.731c0,2.063.039,2.357,1.2,2.456l.668.059c.118.079.078.432-.039.491-1.159-.039-1.827-.059-2.613-.059-.865,0-1.532.02-2.456.059a.381.381,0,0,1-.04-.491l.491-.059c1.14-.138,1.179-.393,1.179-2.456v-7.072c0-2.063-.039-2.338-1.179-2.475l-.314-.039c-.118-.079-.078-.432.039-.491.825.039,1.493.059,2.279.059h3.615c1.257,0,2.4,0,2.652-.059,0,.9.02,1.847.059,2.593a.353.353,0,0,1-.471.059c-.157-.884-.393-1.611-1.375-1.867a8.4,8.4,0,0,0-1.906-.118h-1.2c-.589,0-.589.039-.589.786Z" transform="translate(-1260.672 -281.374)" fill="#fffffff2"/><path d="M1617.926,284.635c0-2.043-.039-2.338-1.2-2.475l-.314-.039c-.118-.079-.078-.432.039-.491.845.039,1.513.059,2.318.059h3.694a26.4,26.4,0,0,0,2.652-.059,22.063,22.063,0,0,1,.314,2.613.386.386,0,0,1-.491.04c-.295-.923-.471-1.611-1.493-1.867a9.375,9.375,0,0,0-1.905-.118h-1.415c-.589,0-.589.039-.589.786v3.929c0,.55.059.55.648.55h1.139a7.3,7.3,0,0,0,1.67-.118c.236-.079.373-.2.471-.688l.157-.805a.388.388,0,0,1,.511.019c0,.472-.079,1.238-.079,1.984,0,.707.079,1.454.079,1.886a.388.388,0,0,1-.511.02l-.177-.766a.839.839,0,0,0-.609-.746,6.568,6.568,0,0,0-1.513-.1h-1.139c-.59,0-.648.02-.648.53v2.77c0,1.041.059,1.709.373,2.043.236.236.648.452,2.377.452a5.751,5.751,0,0,0,2.514-.295,4.931,4.931,0,0,0,1.395-1.906.362.362,0,0,1,.491.138,17.129,17.129,0,0,1-.884,2.731c-1.768-.039-3.516-.059-5.265-.059h-1.768c-.845,0-1.513.02-2.672.059a.381.381,0,0,1-.039-.491l.648-.059c1.12-.1,1.218-.393,1.218-2.456Z" transform="translate(-1395.558 -281.374)" fill="#fffffff2"/></g></g></svg>